<svg width="176" height="60" viewBox="0 0 176 60" fill="none" xmlns="http://www.w3.org/2000/svg">
<path d="M16.4875 23.0077C16.3849 23.1665 16.3281 23.341 16.3124 23.5162C16.6593 23.7264 17.0801 23.8535 17.4441 23.6309C17.2532 23.9944 16.8851 24.1634 16.4889 24.2279C16.571 24.3558 16.6805 24.4684 16.816 24.5563C17.3332 24.893 18.0237 24.7446 18.3589 24.2259C18.5272 23.9655 18.5731 23.6611 18.5122 23.3795C18.7961 23.5402 19.0603 23.7099 19.2847 23.8645C19.282 23.9614 19.2731 24.061 19.2573 24.1634C19.2525 24.1963 19.2464 24.2362 19.2389 24.2802C19.2142 24.4237 19.1779 24.6065 19.1581 24.7144C19.1479 24.768 19.1382 24.8215 19.1287 24.8752C18.8974 24.9995 18.6319 25.0881 18.3746 25.1651C17.7507 25.3382 17.0849 25.422 16.428 25.3863C15.9244 25.3581 15.4434 25.1431 15.1047 24.768C15.102 24.7645 15.0986 24.7611 15.0958 24.7577C14.8844 24.5192 14.8536 24.1688 15.0131 23.8934C15.2388 23.5024 15.518 23.1493 15.8697 22.9205C16.1174 22.7597 16.4157 22.7103 16.7366 22.7357C16.6422 22.8106 16.5567 22.9006 16.4875 23.0077Z" fill="white"/>
<path d="M25.3923 49.2021C25.1596 49.8795 25.1063 50.4353 25.2322 50.8606C25.2274 50.8991 25.2185 50.9465 25.2069 50.9994C21.4196 49.6226 18.2291 50.9705 18.1634 50.9987L18.162 50.9994C18.1504 50.9458 18.1415 50.8991 18.1367 50.8606C18.2626 50.4353 18.2093 49.8789 17.9766 49.2021C18.017 48.9177 18.238 48.4244 19.4306 48.0596C19.4306 48.0596 21.6803 47.4378 23.9383 48.0596C25.1309 48.4244 25.3519 48.9184 25.3923 49.2021Z" fill="white"/>
<path d="M21.6833 15.4421C20.4702 15.3528 18.1328 14.7324 18.1328 14.7324L21.6833 14.0494L25.2338 14.7324C25.2338 14.7324 22.8965 15.3528 21.6833 15.4421Z" fill="white"/>
<path d="M25.1627 53.6185C25.6238 54.0747 25.8264 54.6882 25.7799 55.4941C25.7361 56.263 25.524 56.9102 25.138 57.4442C24.6235 56.3962 23.8332 55.5217 22.7932 54.9899C23.4658 55.8755 23.7888 56.9177 23.7477 58.0213C23.7388 58.2177 23.7203 58.4118 23.6936 58.6059C23.6841 58.6105 23.6745 58.6145 23.6649 58.6197C22.4135 59.2157 20.9546 59.218 19.7039 58.6208C19.6978 58.6179 19.6909 58.6156 19.6847 58.6122C19.6566 58.4147 19.6382 58.2177 19.6293 58.0213C19.591 57.0462 19.8537 56.0383 20.4169 55.2262L20.5831 54.9899C20.4853 55.0469 20.2992 55.1459 20.202 55.2056C19.3132 55.7752 18.6762 56.5564 18.2348 57.4528C17.8476 56.9191 17.6341 56.2712 17.5889 55.501C17.541 54.6951 17.7422 54.0809 18.2034 53.6247C18.8267 53.007 19.8585 52.7309 20.7439 52.621C21.006 52.5997 21.2612 52.5866 21.5075 52.5831C21.929 52.5777 22.3252 52.5955 22.6919 52.6285C23.5609 52.7432 24.5544 53.0188 25.1627 53.6185Z" fill="white"/>
<path d="M24.8607 23.376C24.7985 23.6584 24.8443 23.9642 25.0133 24.2259C25.3479 24.7446 26.0389 24.893 26.5556 24.5564C26.691 24.4684 26.8012 24.3558 26.8833 24.228C26.4871 24.1634 26.1183 23.9944 25.9274 23.6309C26.2921 23.8535 26.7129 23.7264 27.0598 23.5162C27.0434 23.341 26.9866 23.1665 26.884 23.0078C26.8149 22.9006 26.73 22.8099 26.6349 22.7357C26.9545 22.711 27.2507 22.7612 27.497 22.9205C27.8488 23.1493 28.1279 23.5025 28.3537 23.8934C28.5132 24.1689 28.4823 24.5193 28.2709 24.7577C28.2682 24.7611 28.2647 24.7646 28.262 24.768C27.9233 25.1431 27.4423 25.3582 26.9387 25.3863C26.2819 25.422 25.6161 25.3383 24.9921 25.1651C24.7348 25.0882 24.4693 24.9996 24.2381 24.8752C24.2285 24.8216 24.2189 24.768 24.2086 24.7144C24.1888 24.6065 24.1525 24.4238 24.1279 24.2802C24.1203 24.2362 24.1142 24.1964 24.1094 24.1634C24.0937 24.0611 24.0848 23.9614 24.082 23.8645C24.3086 23.7093 24.5747 23.5375 24.8607 23.376Z" fill="white"/>
<path d="M24.7884 27.5526C24.6967 27.2497 24.6215 26.9378 24.5551 26.6217C25.8319 27.194 27.331 26.3826 27.331 26.3826C26.9273 26.3792 26.5709 26.2803 26.2739 26.149C26.3355 26.1614 28.3656 26.5461 29.7628 24.158C29.4303 23.1768 28.6995 22.09 27.3201 21.7388C26.4361 21.5142 25.5904 21.7135 24.8986 22.0288C25.1216 21.8083 25.3769 21.6111 25.6465 21.4366C25.9264 21.2552 26.2219 21.0986 26.5134 20.9653C25.667 20.957 24.7693 21.2147 24.0741 21.7306C23.6984 22.0089 23.3816 22.3627 23.1648 22.7907C22.9472 23.2105 22.8411 23.6756 22.8199 24.1415C22.8137 24.283 22.8151 24.4245 22.8234 24.5654L22.835 24.8711C22.837 24.9048 22.8391 24.9384 22.8411 24.9728C22.8507 25.1274 22.8596 25.2868 22.8699 25.451C22.9506 26.7893 23.0874 28.3922 23.916 29.3974C24.1432 29.6715 24.4354 29.903 24.7522 30.0659C24.9472 30.1572 25.1634 30.2569 25.3523 30.3833C25.5028 30.4829 25.6362 30.5997 25.7286 30.7413C25.9078 31.0099 25.8128 31.3451 25.6034 31.5877C25.4528 31.7622 25.2442 31.8893 25.0341 31.9113C25.0026 31.914 24.9705 31.9161 24.9383 31.9174C24.0748 31.9614 23.2339 32.2239 22.5264 32.7234C22.2883 32.8917 21.9968 32.9906 21.6827 32.9906C21.3686 32.9906 21.0772 32.8917 20.8391 32.7234C20.1315 32.2239 19.2906 31.9614 18.4272 31.9174C18.395 31.9161 18.3628 31.914 18.3313 31.9113C18.1213 31.8893 17.9126 31.7622 17.7621 31.5877C17.5527 31.3451 17.4576 31.0099 17.6369 30.7413C17.7293 30.5997 17.8626 30.4829 18.0132 30.3833C18.202 30.2569 18.4182 30.1572 18.6133 30.0659C18.9301 29.903 19.2222 29.6715 19.4494 29.3974C20.278 28.3922 20.4148 26.7893 20.4956 25.451C20.5059 25.2868 20.5147 25.1274 20.5243 24.9728C20.5264 24.9384 20.5284 24.9048 20.5305 24.8711L20.5421 24.5654C20.5503 24.4245 20.5517 24.283 20.5455 24.1415C20.5243 23.6756 20.4183 23.2105 20.2007 22.7907C19.9838 22.3627 19.667 22.0089 19.2913 21.7306C18.5962 21.2147 17.6984 20.957 16.852 20.9653C17.1435 21.0986 17.4391 21.2552 17.719 21.4366C17.9885 21.6111 18.2438 21.8083 18.4668 22.0288C17.7751 21.7135 16.9293 21.5142 16.0453 21.7388C14.6659 22.09 13.9351 23.1768 13.6026 24.158C14.9998 26.5461 17.03 26.1614 17.0915 26.149C16.7946 26.2803 16.4381 26.3792 16.0344 26.3826C16.0344 26.3826 17.5336 27.194 18.8103 26.621C18.744 26.9378 18.6687 27.2497 18.577 27.5526C18.4025 28.0659 18.2438 28.4142 17.8134 28.6416C17.4337 28.8168 17.0813 29.049 16.7925 29.3273C16.5811 29.53 16.4046 29.7581 16.2759 30.0061C16.1993 30.1538 16.1404 30.3084 16.1014 30.4699C14.9403 29.2744 13.1853 27.7704 11.2188 27.1219C12.4134 26.0371 11.8578 23.8227 11.8578 23.8227C10.9554 22.3771 11.8578 21.1171 11.8578 21.1171C12.3601 20.4328 12.9574 19.7492 13.6122 19.2607C13.9954 18.9824 14.3012 18.8093 14.6844 18.7248C14.9451 18.6712 15.1134 18.7035 15.398 18.7763C16.6208 19.082 17.8188 19.5864 18.8418 20.3497C19.0511 20.5091 19.2571 20.6774 19.4426 20.8725C19.3666 20.6121 19.2571 20.3579 19.1381 20.1078C18.5435 18.8904 17.6684 17.8289 16.6666 16.911C17.1825 17.2305 17.9119 17.4661 18.6557 17.6386C20.6461 18.0996 22.7194 18.0996 24.7098 17.6386C25.4535 17.4661 26.1829 17.2305 26.6988 16.911C25.6971 17.8289 24.822 18.8904 24.2274 20.1078C24.1083 20.3579 23.9988 20.6121 23.9229 20.8725C24.1083 20.6774 24.3143 20.5091 24.5237 20.3497C25.5466 19.5864 26.7447 19.082 27.9674 18.7763C28.252 18.7035 28.4204 18.6712 28.6811 18.7248C29.0642 18.8093 29.37 18.9824 29.7532 19.2607C30.408 19.7492 31.0054 20.4328 31.5076 21.1171C31.5076 21.1171 32.4101 22.3771 31.5076 23.8227C31.5076 23.8227 30.952 26.0371 32.1467 27.1219C30.1802 27.7704 28.4252 29.2744 27.264 30.4699C27.225 30.3084 27.1662 30.1538 27.0895 30.0061C26.9609 29.7581 26.7843 29.53 26.5729 29.3273C26.2842 29.049 25.9318 28.8168 25.552 28.6416C25.1216 28.4142 24.9629 28.0659 24.7884 27.5526Z" fill="white"/>
<path d="M24.9553 38.4402C24.865 38.7254 24.7466 39.0002 24.5982 39.2592C24.4757 39.4736 24.3313 39.668 24.1705 39.8446C24.1671 39.848 24.163 39.8515 24.1596 39.8549C23.5458 40.3914 22.7952 40.6944 22.0275 40.7639L22.9532 39.6865C23.231 39.5464 23.5273 39.3245 23.6177 39.0043C23.6512 38.8924 23.6423 38.7714 23.6019 38.6759C23.4309 39.0394 23.073 39.0751 22.7323 39.1404C22.2198 39.2118 21.6785 39.218 21.1578 39.1912C20.722 39.1507 19.9666 39.1458 19.7688 38.6759C19.6053 39.1177 20.0549 39.5072 20.4148 39.6845L21.3419 40.7639C20.5735 40.6944 19.8229 40.3914 19.2099 39.8549C19.2057 39.8515 19.2023 39.848 19.1982 39.8446C19.0381 39.668 18.8937 39.4736 18.7712 39.2592C18.6227 39.0002 18.5044 38.7254 18.4141 38.4402C20.9061 38.4402 21.6847 36.8291 21.6847 36.8291C21.6847 36.8291 22.4633 38.4402 24.9553 38.4402Z" fill="white"/>
<path d="M40.405 34.7927C39.4081 33.0346 35.6085 27.1913 30.4241 29.732C29.8507 30.013 29.3232 30.3792 28.8394 30.7969C28.1545 31.3884 27.5763 31.9669 27.1705 32.3963C27.0289 32.5461 26.8798 32.6863 26.7244 32.8195H26.7258C24.2886 34.9693 21.6837 33.9937 21.6837 33.9937C21.6837 33.9937 19.0789 34.9693 16.6416 32.8195H16.643C16.4877 32.6863 16.3385 32.5461 16.1968 32.3963C15.7904 31.9663 15.2109 31.3864 14.5239 30.7934C14.0422 30.3778 13.5168 30.013 12.9461 29.7334C7.7603 27.1892 3.95937 33.0346 2.96245 34.7927C2.87419 34.9515 2.78797 35.1115 2.70312 35.2737C2.76744 35.3555 2.83313 35.4365 2.90018 35.5169C4.11949 36.9453 5.30663 37.6536 6.60256 37.8007C6.78047 37.8213 6.95973 37.8309 7.14175 37.8302C7.2765 37.8302 7.412 37.824 7.54956 37.8123C7.75413 37.7958 7.96212 37.767 8.17355 37.7271C8.94607 37.5801 9.7685 37.2819 10.6635 36.858C10.3474 37.3767 9.95597 37.8584 9.50373 38.2747C9.1787 38.5743 8.82292 38.8395 8.4418 39.0607C8.4972 39.7374 8.67307 40.612 9.08768 41.5292C9.38532 42.1875 9.77879 42.8168 10.2632 43.4118C10.7476 44.0074 11.3238 44.5694 11.9854 45.0943C11.9902 43.1761 12.4589 41.453 13.748 40.4101C12.7141 42.3049 13.5763 44.465 14.5561 46.1895C14.7093 46.4513 14.8695 46.7096 15.0357 46.9645H15.0364C15.4976 47.1843 15.9813 47.3932 16.4856 47.5904C16.9133 47.0057 17.6433 46.443 18.8763 46.074C19.5072 45.8858 20.1333 45.7896 20.604 45.7408C22.6943 45.5066 23.9376 45.9305 23.9376 45.9305C24.1189 45.971 24.305 46.0184 24.4911 46.074C25.7241 46.443 26.4542 47.0057 26.8818 47.5904C27.3861 47.3932 27.8699 47.1843 28.331 46.9645C28.4973 46.7096 28.6574 46.4513 28.8107 46.1895C29.7905 44.465 30.6526 42.3049 29.6187 40.4101C30.2633 40.9315 30.7026 41.6227 30.9817 42.4238C31.2602 43.2249 31.3793 44.1352 31.3813 45.0943C32.7053 44.0445 33.6838 42.8463 34.2791 41.5292C34.6937 40.612 34.8696 39.7374 34.925 39.0607C34.5438 38.8395 34.1881 38.5743 33.863 38.2747C33.4108 37.8584 33.0194 37.3767 32.7033 36.858C33.5983 37.2819 34.4207 37.5801 35.1932 37.7271C35.4046 37.767 35.6126 37.7958 35.8172 37.8123C35.9548 37.824 36.0902 37.8302 36.225 37.8302C36.407 37.8309 36.5863 37.8213 36.7642 37.8007C38.0601 37.6536 39.2473 36.9453 40.4666 35.5169C40.5336 35.4365 40.5993 35.3555 40.6636 35.2737C40.5795 35.1115 40.4926 34.9515 40.4043 34.7927H40.405ZM30.7477 33.6921C30.3906 35.3548 29.3786 36.5303 28.069 37.3176C28.069 37.3176 27.3697 41.4242 21.6837 41.4242C15.9978 41.4242 15.2985 37.3176 15.2985 37.3176C13.9888 36.5303 12.9769 35.3548 12.6197 33.6921C12.5068 33.1762 12.4616 32.6581 12.4623 32.1469C12.4726 32.1861 12.4835 32.2252 12.4938 32.2644C12.7292 33.0745 14.4014 37.7422 21.1651 35.4674C21.3347 35.4104 21.5079 35.3486 21.6837 35.2826C21.8596 35.3486 22.0326 35.4104 22.2023 35.4674C28.966 37.7422 30.6383 33.0745 30.8736 32.2644C30.8839 32.2252 30.8948 32.1861 30.9051 32.1469C30.9051 32.6581 30.8607 33.1762 30.7477 33.6921Z" fill="white"/>
<path d="M24.4362 6.87938C24.4328 6.89317 24.4287 6.90689 24.4253 6.91993C24.3466 7.20229 24.2351 7.45582 24.0962 7.68047C23.7869 8.18616 23.3442 8.54617 22.8454 8.75985C22.1043 9.07931 21.2388 9.07586 20.4998 8.75026C20.4964 8.74888 20.4937 8.7475 20.4902 8.74612L21.4222 6.41292L23.6446 7.59669L21.6842 4.27756V2.29199C22.0483 2.4452 22.4868 2.65544 22.9336 2.9282C24.4533 3.8564 24.7831 5.58089 24.4362 6.87938Z" fill="white"/>
<path d="M38.7808 8.75432C35.53 4.75917 29.1817 2.18137 25.4047 0.988659C24.4879 0.699411 23.608 0.457573 22.7916 0.255581L21.6832 0L20.5748 0.255581C19.7585 0.457573 18.8785 0.699411 17.9617 0.988659C14.1847 2.18137 7.83643 4.75917 4.58562 8.75432C2.08817 11.8248 1.04472 15.5431 1.48468 19.8062C1.64547 20.8223 2.10938 22.4314 2.80456 23.4489C3.60785 21.5726 4.81005 19.7883 6.41799 18.7694C6.76353 18.5564 7.1248 18.3812 7.49293 18.2417C7.17339 18.4754 6.88122 18.7337 6.61915 19.0147C5.10153 20.7103 4.5822 23.0518 4.45493 25.2682C4.44535 25.4764 4.43988 25.6845 4.43988 25.8914C4.73068 26.474 5.18022 27.183 5.80218 27.657C5.80218 27.657 10.9004 21.688 7.20964 24.4059C7.185 23.9717 7.18363 23.5334 7.2165 23.0944C7.3253 21.8756 7.66331 20.7584 8.17581 19.7354C8.62055 18.8471 9.19731 18.0301 9.87064 17.2799C11.935 14.9769 15.7085 13.3026 18.7814 12.1202C19.6408 11.8048 20.5378 11.6338 21.4383 11.6083C21.6018 11.6028 21.7647 11.6028 21.9282 11.6083C22.8286 11.6338 23.7256 11.8048 24.5851 12.1202C27.6579 13.3026 31.4314 14.9769 33.4958 17.2799C34.1691 18.0301 34.7459 18.8471 35.1906 19.7354C35.7031 20.7584 36.0411 21.8756 36.1499 23.0944C36.1827 23.5334 36.1814 23.9717 36.1568 24.4059C35.1756 23.6839 34.8157 23.5746 34.8157 23.8048C34.8157 24.439 37.5642 27.657 37.5642 27.657C38.1862 27.183 38.6357 26.474 38.9265 25.8914C38.9265 25.6845 38.921 25.4764 38.9115 25.2682C38.7842 23.0518 38.2649 20.7103 36.7473 19.0147C36.4852 18.7337 36.193 18.4754 35.8735 18.2417C36.2416 18.3812 36.6029 18.5564 36.9484 18.7694C38.5564 19.7883 39.7586 21.5726 40.5618 23.4489C41.257 22.4314 41.721 20.8223 41.8817 19.8062C42.3217 15.5431 41.2782 11.8248 38.7808 8.75432ZM30.8458 12.4946C30.622 12.1209 30.3517 11.778 30.0397 11.4771C29.9966 11.4352 29.9097 11.3514 29.868 11.3122C29.8331 11.284 29.6025 11.0979 29.5614 11.0642C29.0627 10.7028 28.4934 10.4218 27.9056 10.2521C26.4318 9.8337 24.8382 9.91547 23.3602 10.2775L23.2214 10.3153C23.207 10.3202 23.1899 10.3249 23.1741 10.3291L23.1728 10.3297C22.9429 10.4335 22.702 10.5201 22.4516 10.5881C22.4023 10.6018 22.3524 10.6142 22.3024 10.6266C21.8967 10.7241 21.4724 10.7234 21.0667 10.6272C21.0161 10.6149 20.9661 10.6025 20.9162 10.5887C20.6788 10.5242 20.4509 10.4438 20.232 10.3469V10.3524C19.87 10.2308 19.4745 10.16 19.0941 10.0968C17.4382 9.84329 15.6408 9.92644 14.1717 10.8045C14.0773 10.856 13.8734 11.0037 13.7817 11.0642L13.5374 11.2627C13.4629 11.3177 13.3718 11.4139 13.3041 11.4771C13.1467 11.6207 13.0071 11.7918 12.869 11.9532C12.4563 12.4816 12.1553 13.0731 11.9206 13.7114C12.0006 12.9089 12.2018 12.0886 12.5877 11.3672C12.6274 11.2731 12.7122 11.1412 12.7663 11.0525C12.8231 10.9604 12.899 10.8299 12.9647 10.7461C14.0978 9.14114 15.9418 8.28096 17.8337 7.89076C17.7461 7.68184 17.6715 7.46339 17.6106 7.23599C17.0338 5.08071 17.883 2.87804 19.7229 1.75403C20.1861 1.47166 20.6391 1.24836 21.0291 1.07729C21.2775 0.969421 21.4998 0.882858 21.6839 0.815526C21.8673 0.882858 22.0896 0.969421 22.3374 1.07729C22.7273 1.24768 23.181 1.47097 23.6449 1.75403C25.4848 2.87804 26.3339 5.08071 25.7572 7.23599C25.6962 7.46408 25.6217 7.68253 25.5334 7.89208C26.5707 8.11058 27.5758 8.47472 28.4694 9.00034C29.1106 9.38233 29.686 9.87631 30.1601 10.4507C30.23 10.5503 30.4222 10.7928 30.4817 10.8972C30.7712 11.3466 31.0093 11.8426 31.1578 12.3545C31.3042 12.7997 31.3699 13.2614 31.4226 13.7114C31.2583 13.2854 31.0853 12.8691 30.8458 12.4946Z" fill="white"/>
<path d="M16.4875 23.0077C16.3849 23.1665 16.3281 23.341 16.3124 23.5162C16.6593 23.7264 17.0801 23.8535 17.4441 23.6309C17.2532 23.9944 16.8851 24.1634 16.4889 24.2279C16.571 24.3558 16.6805 24.4684 16.816 24.5563C17.3332 24.893 18.0237 24.7446 18.3589 24.2259C18.5272 23.9655 18.5731 23.6611 18.5122 23.3795C18.7961 23.5402 19.0603 23.7099 19.2847 23.8645C19.282 23.9614 19.2731 24.061 19.2573 24.1634C19.2525 24.1963 19.2464 24.2362 19.2389 24.2802C19.2142 24.4237 19.1779 24.6065 19.1581 24.7144C19.1479 24.768 19.1382 24.8215 19.1287 24.8752C18.8974 24.9995 18.6319 25.0881 18.3746 25.1651C17.7507 25.3382 17.0849 25.422 16.428 25.3863C15.9244 25.3581 15.4434 25.1431 15.1047 24.768C15.102 24.7645 15.0986 24.7611 15.0958 24.7577C14.8844 24.5192 14.8536 24.1688 15.0131 23.8934C15.2388 23.5024 15.518 23.1493 15.8697 22.9205C16.1174 22.7597 16.4157 22.7103 16.7366 22.7357C16.6422 22.8106 16.5567 22.9006 16.4875 23.0077Z" fill="white"/>
<path d="M25.3923 49.2021C25.1596 49.8795 25.1063 50.4353 25.2322 50.8606C25.2274 50.8991 25.2185 50.9465 25.2069 50.9994C21.4196 49.6226 18.2291 50.9705 18.1634 50.9987L18.162 50.9994C18.1504 50.9458 18.1415 50.8991 18.1367 50.8606C18.2626 50.4353 18.2093 49.8789 17.9766 49.2021C18.017 48.9177 18.238 48.4244 19.4306 48.0596C19.4306 48.0596 21.6803 47.4378 23.9383 48.0596C25.1309 48.4244 25.3519 48.9184 25.3923 49.2021Z" fill="white"/>
<path d="M21.6833 15.4421C20.4702 15.3528 18.1328 14.7324 18.1328 14.7324L21.6833 14.0494L25.2338 14.7324C25.2338 14.7324 22.8965 15.3528 21.6833 15.4421Z" fill="white"/>
<path d="M25.1627 53.6185C25.6238 54.0747 25.8264 54.6882 25.7799 55.4941C25.7361 56.263 25.524 56.9102 25.138 57.4442C24.6235 56.3962 23.8332 55.5217 22.7932 54.9899C23.4658 55.8755 23.7888 56.9177 23.7477 58.0213C23.7388 58.2177 23.7203 58.4118 23.6936 58.6059C23.6841 58.6105 23.6745 58.6145 23.6649 58.6197C22.4135 59.2157 20.9546 59.218 19.7039 58.6208C19.6978 58.6179 19.6909 58.6156 19.6847 58.6122C19.6566 58.4147 19.6382 58.2177 19.6293 58.0213C19.591 57.0462 19.8537 56.0383 20.4169 55.2262L20.5831 54.9899C20.4853 55.0469 20.2992 55.1459 20.202 55.2056C19.3132 55.7752 18.6762 56.5564 18.2348 57.4528C17.8476 56.9191 17.6341 56.2712 17.5889 55.501C17.541 54.6951 17.7422 54.0809 18.2034 53.6247C18.8267 53.007 19.8585 52.7309 20.7439 52.621C21.006 52.5997 21.2612 52.5866 21.5075 52.5831C21.929 52.5777 22.3252 52.5955 22.6919 52.6285C23.5609 52.7432 24.5544 53.0188 25.1627 53.6185Z" fill="white"/>
<path d="M24.8607 23.376C24.7985 23.6584 24.8443 23.9642 25.0133 24.2259C25.3479 24.7446 26.0389 24.893 26.5556 24.5564C26.691 24.4684 26.8012 24.3558 26.8833 24.228C26.4871 24.1634 26.1183 23.9944 25.9274 23.6309C26.2921 23.8535 26.7129 23.7264 27.0598 23.5162C27.0434 23.341 26.9866 23.1665 26.884 23.0078C26.8149 22.9006 26.73 22.8099 26.6349 22.7357C26.9545 22.711 27.2507 22.7612 27.497 22.9205C27.8488 23.1493 28.1279 23.5025 28.3537 23.8934C28.5132 24.1689 28.4823 24.5193 28.2709 24.7577C28.2682 24.7611 28.2647 24.7646 28.262 24.768C27.9233 25.1431 27.4423 25.3582 26.9387 25.3863C26.2819 25.422 25.6161 25.3383 24.9921 25.1651C24.7348 25.0882 24.4693 24.9996 24.2381 24.8752C24.2285 24.8216 24.2189 24.768 24.2086 24.7144C24.1888 24.6065 24.1525 24.4238 24.1279 24.2802C24.1203 24.2362 24.1142 24.1964 24.1094 24.1634C24.0937 24.0611 24.0848 23.9614 24.082 23.8645C24.3086 23.7093 24.5747 23.5375 24.8607 23.376Z" fill="white"/>
<path d="M11.8578 23.8227C10.9554 22.3771 11.8578 21.1171 11.8578 21.1171C12.3601 20.4328 12.9574 19.7492 13.6122 19.2607C13.9954 18.9824 14.3012 18.8093 14.6844 18.7248C14.9451 18.6712 15.1134 18.7035 15.398 18.7763C16.6208 19.082 17.8188 19.5864 18.8418 20.3497C19.0511 20.5091 19.2571 20.6774 19.4426 20.8725C19.3666 20.6121 19.2571 20.3579 19.1381 20.1078C18.5435 18.8904 17.6684 17.8289 16.6666 16.911C17.1825 17.2305 17.9119 17.4661 18.6557 17.6386C20.6461 18.0996 22.7194 18.0996 24.7098 17.6386C25.4535 17.4661 26.1829 17.2305 26.6988 16.911C25.6971 17.8289 24.822 18.8904 24.2274 20.1078C24.1083 20.3579 23.9988 20.6121 23.9229 20.8725C24.1083 20.6774 24.3143 20.5091 24.5237 20.3497C25.5466 19.5864 26.7447 19.082 27.9674 18.7763C28.252 18.7035 28.4204 18.6712 28.6811 18.7248C29.0642 18.8093 29.37 18.9824 29.7532 19.2607C30.408 19.7492 31.0054 20.4328 31.5076 21.1171C31.5076 21.1171 32.4101 22.3771 31.5076 23.8227C31.5076 23.8227 30.952 26.0371 32.1467 27.1219C30.1802 27.7704 28.4252 29.2744 27.264 30.4699C27.225 30.3084 27.1662 30.1538 27.0895 30.0061C26.9609 29.7581 26.7843 29.53 26.5729 29.3273C26.2842 29.049 25.9318 28.8168 25.552 28.6416C25.1216 28.4142 24.9629 28.0659 24.7884 27.5526C24.6967 27.2497 24.6215 26.9378 24.5551 26.6217C25.8319 27.194 27.331 26.3826 27.331 26.3826C26.9273 26.3792 26.5709 26.2803 26.2739 26.149C26.3355 26.1614 28.3656 26.5461 29.7628 24.158C29.4303 23.1768 28.6995 22.09 27.3201 21.7388C26.4361 21.5142 25.5904 21.7135 24.8986 22.0288C25.1216 21.8083 25.3769 21.6111 25.6465 21.4366C25.9264 21.2552 26.2219 21.0986 26.5134 20.9653C25.667 20.957 24.7693 21.2147 24.0741 21.7306C23.6984 22.0089 23.3816 22.3627 23.1648 22.7907C22.9472 23.2105 22.8411 23.6756 22.8199 24.1415C22.8137 24.283 22.8151 24.4245 22.8234 24.5654L22.835 24.8711C22.837 24.9048 22.8391 24.9384 22.8411 24.9728C22.8507 25.1274 22.8596 25.2868 22.8699 25.451C22.9506 26.7893 23.0874 28.3922 23.916 29.3974C24.1432 29.6715 24.4354 29.903 24.7522 30.0659C24.9472 30.1572 25.1634 30.2569 25.3523 30.3833C25.5028 30.4829 25.6362 30.5997 25.7286 30.7413C25.9078 31.0099 25.8128 31.3451 25.6034 31.5877C25.4528 31.7622 25.2442 31.8893 25.0341 31.9113C25.0026 31.914 24.9705 31.9161 24.9383 31.9174C24.0748 31.9614 23.2339 32.2239 22.5264 32.7234C22.2883 32.8917 21.9968 32.9906 21.6827 32.9906C21.3686 32.9906 21.0772 32.8917 20.8391 32.7234C20.1315 32.2239 19.2906 31.9614 18.4272 31.9174C18.395 31.9161 18.3628 31.914 18.3313 31.9113C18.1213 31.8893 17.9126 31.7622 17.7621 31.5877C17.5527 31.3451 17.4576 31.0099 17.6369 30.7413C17.7293 30.5997 17.8626 30.4829 18.0132 30.3833C18.202 30.2569 18.4182 30.1572 18.6133 30.0659C18.9301 29.903 19.2222 29.6715 19.4494 29.3974C20.278 28.3922 20.4148 26.7893 20.4956 25.451C20.5059 25.2868 20.5147 25.1274 20.5243 24.9728C20.5264 24.9384 20.5284 24.9048 20.5305 24.8711L20.5421 24.5654C20.5503 24.4245 20.5517 24.283 20.5455 24.1415C20.5243 23.6756 20.4183 23.2105 20.2007 22.7907C19.9838 22.3627 19.667 22.0089 19.2913 21.7306C18.5962 21.2147 17.6984 20.957 16.852 20.9653C17.1435 21.0986 17.4391 21.2552 17.719 21.4366C17.9885 21.6111 18.2438 21.8083 18.4668 22.0288C17.7751 21.7135 16.9293 21.5142 16.0453 21.7388C14.6659 22.09 13.9351 23.1768 13.6026 24.158C14.9998 26.5461 17.03 26.1614 17.0915 26.149C16.7946 26.2803 16.4381 26.3792 16.0344 26.3826C16.0344 26.3826 17.5336 27.194 18.8103 26.621C18.744 26.9378 18.6687 27.2497 18.577 27.5526C18.4025 28.0659 18.2438 28.4142 17.8134 28.6416C17.4337 28.8168 17.0813 29.049 16.7925 29.3273C16.5811 29.53 16.4046 29.7581 16.2759 30.0061C16.1993 30.1538 16.1404 30.3084 16.1014 30.4699C14.9403 29.2744 13.1853 27.7704 11.2188 27.1219C12.4134 26.0371 11.8578 23.8227 11.8578 23.8227Z" fill="white"/>
<path d="M24.9553 38.4402C24.865 38.7254 24.7466 39.0002 24.5982 39.2592C24.4757 39.4736 24.3313 39.668 24.1705 39.8446C24.1671 39.848 24.163 39.8515 24.1596 39.8549C23.5458 40.3914 22.7952 40.6944 22.0275 40.7639L22.9532 39.6865C23.231 39.5464 23.5273 39.3245 23.6177 39.0043C23.6512 38.8924 23.6423 38.7714 23.6019 38.6759C23.4309 39.0394 23.073 39.0751 22.7323 39.1404C22.2198 39.2118 21.6785 39.218 21.1578 39.1912C20.722 39.1507 19.9666 39.1458 19.7688 38.6759C19.6053 39.1177 20.0549 39.5072 20.4148 39.6845L21.3419 40.7639C20.5735 40.6944 19.8229 40.3914 19.2099 39.8549C19.2057 39.8515 19.2023 39.848 19.1982 39.8446C19.0381 39.668 18.8937 39.4736 18.7712 39.2592C18.6227 39.0002 18.5044 38.7254 18.4141 38.4402C20.9061 38.4402 21.6847 36.8291 21.6847 36.8291C21.6847 36.8291 22.4633 38.4402 24.9553 38.4402Z" fill="white"/>
<path d="M40.405 34.7927C39.4081 33.0346 35.6085 27.1913 30.4241 29.732C29.8507 30.013 29.3232 30.3792 28.8394 30.7969C28.1545 31.3884 27.5763 31.9669 27.1705 32.3963C27.0289 32.5461 26.8798 32.6863 26.7244 32.8195H26.7258C24.2886 34.9693 21.6837 33.9937 21.6837 33.9937C21.6837 33.9937 19.0789 34.9693 16.6416 32.8195H16.643C16.4877 32.6863 16.3385 32.5461 16.1968 32.3963C15.7904 31.9663 15.2109 31.3864 14.5239 30.7934C14.0422 30.3778 13.5168 30.013 12.9461 29.7334C7.7603 27.1892 3.95937 33.0346 2.96245 34.7927C2.87419 34.9515 2.78797 35.1115 2.70312 35.2737C2.76744 35.3555 2.83313 35.4365 2.90018 35.5169C4.11949 36.9453 5.30663 37.6536 6.60256 37.8007C6.78047 37.8213 6.95973 37.8309 7.14175 37.8302C7.2765 37.8302 7.412 37.824 7.54956 37.8123C7.75413 37.7958 7.96212 37.767 8.17355 37.7271C8.94607 37.5801 9.7685 37.2819 10.6635 36.858C10.3474 37.3767 9.95597 37.8584 9.50373 38.2747C9.1787 38.5743 8.82292 38.8395 8.4418 39.0607C8.4972 39.7374 8.67307 40.612 9.08768 41.5292C9.38532 42.1875 9.77879 42.8168 10.2632 43.4118C10.7476 44.0074 11.3238 44.5694 11.9854 45.0943C11.9902 43.1761 12.4589 41.453 13.748 40.4101C12.7141 42.3049 13.5763 44.465 14.5561 46.1895C14.7093 46.4513 14.8695 46.7096 15.0357 46.9645H15.0364C15.4976 47.1843 15.9813 47.3932 16.4856 47.5904C16.9133 47.0057 17.6433 46.443 18.8763 46.074C19.5072 45.8858 20.1333 45.7896 20.604 45.7408C22.6943 45.5066 23.9376 45.9305 23.9376 45.9305C24.1189 45.971 24.305 46.0184 24.4911 46.074C25.7241 46.443 26.4542 47.0057 26.8818 47.5904C27.3861 47.3932 27.8699 47.1843 28.331 46.9645C28.4973 46.7096 28.6574 46.4513 28.8107 46.1895C29.7905 44.465 30.6526 42.3049 29.6187 40.4101C30.2633 40.9315 30.7026 41.6227 30.9817 42.4238C31.2602 43.2249 31.3793 44.1352 31.3813 45.0943C32.7053 44.0445 33.6838 42.8463 34.2791 41.5292C34.6937 40.612 34.8696 39.7374 34.925 39.0607C34.5438 38.8395 34.1881 38.5743 33.863 38.2747C33.4108 37.8584 33.0194 37.3767 32.7033 36.858C33.5983 37.2819 34.4207 37.5801 35.1932 37.7271C35.4046 37.767 35.6126 37.7958 35.8172 37.8123C35.9548 37.824 36.0902 37.8302 36.225 37.8302C36.407 37.8309 36.5863 37.8213 36.7642 37.8007C38.0601 37.6536 39.2473 36.9453 40.4666 35.5169C40.5336 35.4365 40.5993 35.3555 40.6636 35.2737C40.5795 35.1115 40.4926 34.9515 40.4043 34.7927H40.405ZM30.7477 33.6921C30.3906 35.3548 29.3786 36.5303 28.069 37.3176C28.069 37.3176 27.3697 41.4242 21.6837 41.4242C15.9978 41.4242 15.2985 37.3176 15.2985 37.3176C13.9888 36.5303 12.9769 35.3548 12.6197 33.6921C12.5068 33.1762 12.4616 32.6581 12.4623 32.1469C12.4726 32.1861 12.4835 32.2252 12.4938 32.2644C12.7292 33.0745 14.4014 37.7422 21.1651 35.4674C21.3347 35.4104 21.5079 35.3486 21.6837 35.2826C21.8596 35.3486 22.0326 35.4104 22.2023 35.4674C28.966 37.7422 30.6383 33.0745 30.8736 32.2644C30.8839 32.2252 30.8948 32.1861 30.9051 32.1469C30.9051 32.6581 30.8607 33.1762 30.7477 33.6921Z" fill="white"/>
<path d="M24.4362 6.87938C24.4328 6.89317 24.4287 6.90689 24.4253 6.91993C24.3466 7.20229 24.2351 7.45582 24.0962 7.68047C23.7869 8.18616 23.3442 8.54617 22.8454 8.75985C22.1043 9.07931 21.2388 9.07586 20.4998 8.75026C20.4964 8.74888 20.4937 8.7475 20.4902 8.74612L21.4222 6.41292L23.6446 7.59669L21.6842 4.27756V2.29199C22.0483 2.4452 22.4868 2.65544 22.9336 2.9282C24.4533 3.8564 24.7831 5.58089 24.4362 6.87938Z" fill="white"/>
<path d="M38.7808 8.75432C35.53 4.75917 29.1817 2.18137 25.4047 0.988659C24.4879 0.699411 23.608 0.457573 22.7916 0.255581L21.6832 0L20.5748 0.255581C19.7585 0.457573 18.8785 0.699411 17.9617 0.988659C14.1847 2.18137 7.83643 4.75917 4.58562 8.75432C2.08817 11.8248 1.04472 15.5431 1.48468 19.8062C1.64547 20.8223 2.10938 22.4314 2.80456 23.4489C3.60785 21.5726 4.81005 19.7883 6.41799 18.7694C6.76353 18.5564 7.1248 18.3812 7.49293 18.2417C7.17339 18.4754 6.88122 18.7337 6.61915 19.0147C5.10153 20.7103 4.5822 23.0518 4.45493 25.2682C4.44535 25.4764 4.43988 25.6845 4.43988 25.8914C4.73068 26.474 5.18022 27.183 5.80218 27.657C5.80218 27.657 10.9004 21.688 7.20964 24.4059C7.185 23.9717 7.18363 23.5334 7.2165 23.0944C7.3253 21.8756 7.66331 20.7584 8.17581 19.7354C8.62055 18.8471 9.19731 18.0301 9.87064 17.2799C11.935 14.9769 15.7085 13.3026 18.7814 12.1202C19.6408 11.8048 20.5378 11.6338 21.4383 11.6083C21.6018 11.6028 21.7647 11.6028 21.9282 11.6083C22.8286 11.6338 23.7256 11.8048 24.5851 12.1202C27.6579 13.3026 31.4314 14.9769 33.4958 17.2799C34.1691 18.0301 34.7459 18.8471 35.1906 19.7354C35.7031 20.7584 36.0411 21.8756 36.1499 23.0944C36.1827 23.5334 36.1814 23.9717 36.1568 24.4059C35.1756 23.6839 34.8157 23.5746 34.8157 23.8048C34.8157 24.439 37.5642 27.657 37.5642 27.657C38.1862 27.183 38.6357 26.474 38.9265 25.8914C38.9265 25.6845 38.921 25.4764 38.9115 25.2682C38.7842 23.0518 38.2649 20.7103 36.7473 19.0147C36.4852 18.7337 36.193 18.4754 35.8735 18.2417C36.2416 18.3812 36.6029 18.5564 36.9484 18.7694C38.5564 19.7883 39.7586 21.5726 40.5618 23.4489C41.257 22.4314 41.721 20.8223 41.8817 19.8062C42.3217 15.5431 41.2782 11.8248 38.7808 8.75432ZM30.8458 12.4946C30.622 12.1209 30.3517 11.778 30.0397 11.4771C29.9966 11.4352 29.9097 11.3514 29.868 11.3122C29.8331 11.284 29.6025 11.0979 29.5614 11.0642C29.0627 10.7028 28.4934 10.4218 27.9056 10.2521C26.4318 9.8337 24.8382 9.91547 23.3602 10.2775L23.2214 10.3153C23.207 10.3202 23.1899 10.3249 23.1741 10.3291L23.1728 10.3297C22.9429 10.4335 22.702 10.5201 22.4516 10.5881C22.4023 10.6018 22.3524 10.6142 22.3024 10.6266C21.8967 10.7241 21.4724 10.7234 21.0667 10.6272C21.0161 10.6149 20.9661 10.6025 20.9162 10.5887C20.6788 10.5242 20.4509 10.4438 20.232 10.3469V10.3524C19.87 10.2308 19.4745 10.16 19.0941 10.0968C17.4382 9.84329 15.6408 9.92644 14.1717 10.8045C14.0773 10.856 13.8734 11.0037 13.7817 11.0642L13.5374 11.2627C13.4629 11.3177 13.3718 11.4139 13.3041 11.4771C13.1467 11.6207 13.0071 11.7918 12.869 11.9532C12.4563 12.4816 12.1553 13.0731 11.9206 13.7114C12.0006 12.9089 12.2018 12.0886 12.5877 11.3672C12.6274 11.2731 12.7122 11.1412 12.7663 11.0525C12.8231 10.9604 12.899 10.8299 12.9647 10.7461C14.0978 9.14114 15.9418 8.28096 17.8337 7.89076C17.7461 7.68184 17.6715 7.46339 17.6106 7.23599C17.0338 5.08071 17.883 2.87804 19.7229 1.75403C20.1861 1.47166 20.6391 1.24836 21.0291 1.07729C21.2775 0.969421 21.4998 0.882858 21.6839 0.815526C21.8673 0.882858 22.0896 0.969421 22.3374 1.07729C22.7273 1.24768 23.181 1.47097 23.6449 1.75403C25.4848 2.87804 26.3339 5.08071 25.7572 7.23599C25.6962 7.46408 25.6217 7.68253 25.5334 7.89208C26.5707 8.11058 27.5758 8.47472 28.4694 9.00034C29.1106 9.38233 29.686 9.87631 30.1601 10.4507C30.23 10.5503 30.4222 10.7928 30.4817 10.8972C30.7712 11.3466 31.0093 11.8426 31.1578 12.3545C31.3042 12.7997 31.3699 13.2614 31.4226 13.7114C31.2583 13.2854 31.0853 12.8691 30.8458 12.4946Z" fill="white"/>
<path d="M63.4919 35.72C62.2819 35.72 61.1819 35.39 60.1919 34.73C59.2019 34.07 58.4136 33.1203 57.8269 31.881C57.2403 30.6417 56.9469 29.1493 56.9469 27.404C56.9469 25.6587 57.2439 24.1663 57.8379 22.927C58.4319 21.6877 59.2349 20.738 60.2469 20.078C61.2663 19.4107 62.4066 19.077 63.6679 19.077C64.6946 19.077 65.5636 19.2567 66.2749 19.616C66.9936 19.968 67.5766 20.4263 68.0239 20.991C68.4786 21.5483 68.8086 22.1423 69.0139 22.773C69.2193 23.3963 69.3219 23.983 69.3219 24.533C69.3219 24.555 69.3219 24.577 69.3219 24.599C69.3219 24.621 69.3219 24.643 69.3219 24.665H67.4959C67.4959 24.643 67.4959 24.621 67.4959 24.599C67.4959 24.577 67.4959 24.555 67.4959 24.533C67.4959 24.093 67.4189 23.653 67.2649 23.213C67.1183 22.7657 66.8873 22.3623 66.5719 22.003C66.2566 21.6363 65.8569 21.343 65.3729 21.123C64.8963 20.903 64.3279 20.793 63.6679 20.793C62.7806 20.793 61.9703 21.035 61.2369 21.519C60.5109 22.003 59.9279 22.7363 59.4879 23.719C59.0553 24.6943 58.8389 25.9227 58.8389 27.404C58.8389 28.5407 58.9599 29.527 59.2019 30.363C59.4439 31.1917 59.7776 31.8773 60.2029 32.42C60.6283 32.9627 61.1233 33.366 61.6879 33.63C62.2599 33.894 62.8759 34.026 63.5359 34.026C64.4086 34.026 65.1236 33.8757 65.6809 33.575C66.2456 33.2743 66.6819 32.9003 66.9899 32.453C67.2979 31.9983 67.4959 31.551 67.5839 31.111V29.406H63.6129V27.833H69.2779V35.5H67.8809L67.7819 33.696C67.7233 33.806 67.6023 33.971 67.4189 34.191C67.2356 34.411 66.9753 34.6383 66.6379 34.873C66.3079 35.1077 65.8826 35.3093 65.3619 35.478C64.8413 35.6393 64.2179 35.72 63.4919 35.72ZM73.46 20.925L74.307 19.858V27.184L73.845 26.535H80.071V28.185H73.845L74.307 27.536V34.917L73.46 33.85H81.292V35.5H72.426V19.275H81.292V20.925H73.46ZM86.2188 35.5H84.3928V19.275H87.4618L94.3478 34.422L94.2048 34.51V19.275H96.0308V35.5H92.9178L86.0538 20.375L86.2188 20.298V35.5ZM99.2081 35.5V19.275H101.056V35.5H99.2081ZM105.278 20.925L106.125 19.858V27.184L105.663 26.535H111.889V28.185H105.663L106.125 27.536V34.917L105.278 33.85H113.11V35.5H104.244V19.275H113.11V20.925H105.278Z" fill="white"/>
<path d="M121.678 35.764C120.505 35.764 119.471 35.577 118.576 35.203C117.689 34.829 116.992 34.2717 116.486 33.531C115.987 32.783 115.738 31.8553 115.738 30.748C115.738 30.6307 115.738 30.5243 115.738 30.429C115.738 30.3263 115.738 30.2163 115.738 30.099H119.159C119.159 30.209 119.159 30.308 119.159 30.396C119.159 30.4767 119.159 30.572 119.159 30.682C119.159 31.4373 119.372 32.0167 119.797 32.42C120.222 32.8233 120.853 33.025 121.689 33.025C122.532 33.025 123.181 32.893 123.636 32.629C124.091 32.3577 124.318 31.914 124.318 31.298C124.318 30.8653 124.146 30.484 123.801 30.154C123.464 29.824 123.002 29.5307 122.415 29.274C121.836 29.01 121.172 28.7643 120.424 28.537C119.61 28.2803 118.855 27.943 118.158 27.525C117.461 27.107 116.9 26.5753 116.475 25.93C116.057 25.2847 115.848 24.489 115.848 23.543C115.848 22.5897 116.101 21.7793 116.607 21.112C117.113 20.4373 117.802 19.924 118.675 19.572C119.548 19.2127 120.534 19.033 121.634 19.033C122.785 19.033 123.801 19.2127 124.681 19.572C125.568 19.924 126.261 20.4557 126.76 21.167C127.266 21.871 127.519 22.751 127.519 23.807C127.519 23.9243 127.519 24.0343 127.519 24.137C127.519 24.2323 127.519 24.3423 127.519 24.467H124.109C124.109 24.3863 124.109 24.302 124.109 24.214C124.109 24.126 124.109 24.0417 124.109 23.961C124.109 23.2497 123.911 22.7033 123.515 22.322C123.126 21.9407 122.514 21.75 121.678 21.75C120.871 21.75 120.244 21.8967 119.797 22.19C119.357 22.4833 119.137 22.9343 119.137 23.543C119.137 23.983 119.295 24.357 119.61 24.665C119.933 24.973 120.373 25.248 120.93 25.49C121.487 25.732 122.122 25.974 122.833 26.216C123.801 26.5533 124.644 26.9273 125.363 27.338C126.089 27.7413 126.65 28.251 127.046 28.867C127.442 29.4757 127.64 30.253 127.64 31.199C127.64 32.167 127.391 32.992 126.892 33.674C126.393 34.356 125.693 34.8767 124.791 35.236C123.896 35.588 122.859 35.764 121.678 35.764ZM131.689 35.5L129.313 19.275H132.822L134.549 34.763L134.054 34.741L136.804 19.275H141.061L143.8 34.741L143.305 34.763L145.032 19.275H148.541L146.165 35.5H140.929L138.762 21.64H139.114L136.925 35.5H131.689ZM148.505 35.5L152.553 19.253H157.954L161.98 35.5H158.482L155.248 21.332H155.27L152.003 35.5H148.505ZM151.409 31.738V29.076H159.109V31.738H151.409ZM167.294 35.5H163.873V19.275H169.428C170.668 19.275 171.727 19.517 172.607 20.001C173.495 20.4777 174.169 21.1267 174.631 21.948C175.101 22.762 175.335 23.6823 175.335 24.709C175.335 25.7283 175.097 26.6633 174.62 27.514C174.151 28.3573 173.476 29.0357 172.596 29.549C171.716 30.055 170.66 30.308 169.428 30.308H167.294V35.5ZM167.294 29.252L165.754 27.668H169.065C169.637 27.668 170.136 27.5543 170.561 27.327C170.987 27.0923 171.317 26.755 171.551 26.315C171.786 25.8677 171.903 25.3323 171.903 24.709C171.903 24.0783 171.786 23.5577 171.551 23.147C171.324 22.729 170.998 22.421 170.572 22.223C170.154 22.0177 169.652 21.915 169.065 21.915H165.754L167.294 20.287V29.252Z" fill="white"/>
</svg>
